G04*
G04 #@! TF.GenerationSoftware,Altium Limited,Altium Designer,22.10.1 (41)*
G04*
G04 Layer_Color=16711935*
%FSTAX24Y24*%
%MOIN*%
G70*
G04*
G04 #@! TF.SameCoordinates,17841630-244F-4CFE-80E3-D5873E1B35FB*
G04*
G04*
G04 #@! TF.FilePolarity,Negative*
G04*
G01*
G75*
%ADD25R,0.0830X0.0680*%
%ADD26O,0.0680X0.0830*%
%ADD27O,0.0830X0.0680*%
%ADD28R,0.0830X0.0680*%
%ADD29O,0.0830X0.0680*%
%ADD30R,0.0680X0.0830*%
%ADD31C,0.0480*%
%ADD32C,0.1261*%
%ADD46R,0.0434X0.0434*%
%ADD47R,0.0671X0.0434*%
%ADD48R,0.0434X0.0671*%
D25*
X03535Y04295D02*
D03*
X0478Y03485D02*
D03*
D26*
X03635Y04295D02*
D03*
X03735D02*
D03*
X03835D02*
D03*
X03935D02*
D03*
X04035D02*
D03*
X04135D02*
D03*
X04235D02*
D03*
X04335D02*
D03*
Y04395D02*
D03*
X04235D02*
D03*
X04135D02*
D03*
X04035D02*
D03*
X03935D02*
D03*
X03835D02*
D03*
X03735D02*
D03*
X03635D02*
D03*
X03545Y0473D02*
D03*
Y0463D02*
D03*
X03245Y0483D02*
D03*
Y0473D02*
D03*
Y0463D02*
D03*
X03045Y04735D02*
D03*
Y04635D02*
D03*
Y04535D02*
D03*
Y04435D02*
D03*
Y04335D02*
D03*
Y04235D02*
D03*
Y04135D02*
D03*
D27*
X03535Y04395D02*
D03*
X0478Y04085D02*
D03*
Y03985D02*
D03*
Y03885D02*
D03*
Y03785D02*
D03*
Y03685D02*
D03*
Y03585D02*
D03*
D28*
X0481Y0425D02*
D03*
X0304Y0372D02*
D03*
X04815Y0453D02*
D03*
X03275Y0407D02*
D03*
X04645Y04285D02*
D03*
D29*
X0481Y0435D02*
D03*
X0304Y0362D02*
D03*
Y0352D02*
D03*
Y0342D02*
D03*
X04815Y0473D02*
D03*
Y0463D02*
D03*
X03275Y0337D02*
D03*
Y0347D02*
D03*
Y0357D02*
D03*
Y0367D02*
D03*
Y0377D02*
D03*
Y0387D02*
D03*
Y0397D02*
D03*
X04645Y04385D02*
D03*
Y04485D02*
D03*
Y04585D02*
D03*
Y04685D02*
D03*
Y04785D02*
D03*
D30*
X03545Y0483D02*
D03*
X03045Y04035D02*
D03*
D31*
X03905Y0391D02*
D03*
X0387Y0386D02*
D03*
X0388Y0347D02*
D03*
X03185Y03775D02*
D03*
X0376Y0337D02*
D03*
X0402Y0325D02*
D03*
X03795Y0383D02*
D03*
X03596Y04003D02*
D03*
X041Y0406D02*
D03*
X0404Y042D02*
D03*
X04005Y04055D02*
D03*
X03525Y03895D02*
D03*
X04225Y0388D02*
D03*
X04695Y03595D02*
D03*
X04515Y03765D02*
D03*
X04445Y0373D02*
D03*
X04685Y03775D02*
D03*
X04655Y03829D02*
D03*
X03685Y03615D02*
D03*
X035Y03535D02*
D03*
X0439Y04045D02*
D03*
X0407Y03725D02*
D03*
X0415D02*
D03*
Y0355D02*
D03*
X04239Y04478D02*
D03*
X03185Y04935D02*
D03*
X0339Y03975D02*
D03*
X04617Y03935D02*
D03*
X039277Y037927D02*
D03*
X04059Y03504D02*
D03*
X04013Y0361D02*
D03*
X043255Y045155D02*
D03*
X04377Y04632D02*
D03*
X04087Y0463D02*
D03*
X04768Y04179D02*
D03*
X04554Y04656D02*
D03*
X04166Y04738D02*
D03*
X03528Y03695D02*
D03*
X044875Y04585D02*
D03*
X03747Y03525D02*
D03*
X034655Y03635D02*
D03*
X04683Y04043D02*
D03*
X04491Y0436D02*
D03*
X0322Y04223D02*
D03*
X03478Y04481D02*
D03*
X03422Y03827D02*
D03*
X03494Y03314D02*
D03*
D32*
X03Y0493D02*
D03*
X02995Y03265D02*
D03*
X0479Y0327D02*
D03*
X04805Y04925D02*
D03*
D46*
X038915Y035889D02*
D03*
X038363D02*
D03*
X039466D02*
D03*
X038363Y036441D02*
D03*
X038915D02*
D03*
X039466D02*
D03*
X038363Y035338D02*
D03*
X038915D02*
D03*
X039466D02*
D03*
D47*
X03606Y03285D02*
D03*
Y03335D02*
D03*
Y03385D02*
D03*
Y03435D02*
D03*
Y03485D02*
D03*
Y03535D02*
D03*
Y03585D02*
D03*
Y03635D02*
D03*
Y03685D02*
D03*
Y03735D02*
D03*
Y03785D02*
D03*
Y03835D02*
D03*
Y03885D02*
D03*
Y03935D02*
D03*
X04295D02*
D03*
Y03885D02*
D03*
Y03835D02*
D03*
Y03785D02*
D03*
Y03735D02*
D03*
Y03685D02*
D03*
Y03635D02*
D03*
Y03585D02*
D03*
Y03535D02*
D03*
Y03485D02*
D03*
Y03435D02*
D03*
Y03385D02*
D03*
Y03335D02*
D03*
Y03285D02*
D03*
D48*
X036755Y039842D02*
D03*
X037255D02*
D03*
X037755D02*
D03*
X038255D02*
D03*
X038755D02*
D03*
X039255D02*
D03*
X039755D02*
D03*
X040255D02*
D03*
X040755D02*
D03*
X041255D02*
D03*
X041755D02*
D03*
X042255D02*
D03*
M02*
