M48
;Layer_Color=9474304
;FILE_FORMAT=2:4
INCH,LZ
;TYPE=PLATED
T1F00S00C0.0200
T2F00S00C0.0433
T3F00S00C0.1181
%
T01
X03494Y03314
X035Y03535
X034655Y03635
X03528Y03695
X03525Y03895
X03422Y03827
X0339Y03975
X03596Y04003
X03795Y0383
X0387Y0386
X03905Y0391
X039277Y037927
X0407Y03725
X0415
Y0355
X04059Y03504
X04013Y0361
X0388Y0347
X03747Y03525
X03685Y03615
X0376Y0337
X0402Y0325
X04005Y04055
X041Y0406
X0404Y042
X04239Y04478
X043255Y045155
X04377Y04632
X044875Y04585
X04554Y04656
X04491Y0436
X0439Y04045
X04683Y04043
X04617Y03935
X04655Y03829
X04685Y03775
X04515Y03765
X04445Y0373
X04225Y0388
X04087Y0463
X03478Y04481
X0322Y04223
X03185Y03775
X04695Y03595
X04768Y04179
X04166Y04738
X03185Y04935
T02
X0304Y0342
Y0352
Y0362
Y0372
X03045Y04035
Y04135
Y04235
Y04335
Y04435
Y04535
Y04635
X03245Y0463
X03545
X03535Y04395
Y04295
X03635
X03735
X03835
X03935
X04035
X04135
X04235
X04335
Y04395
X04235
X04135
X04035
X03935
X03835
X03735
X03635
X03275Y0407
Y0397
Y0387
Y0377
Y0367
Y0357
Y0347
Y0337
X04645Y04285
Y04385
Y04485
Y04585
Y04685
X04815Y0463
Y0453
X0481Y0435
Y0425
X0478Y04085
Y03985
Y03885
Y03785
Y03685
Y03585
Y03485
X04815Y0473
X04645Y04785
X03545Y0483
Y0473
X03245
Y0483
X03045Y04735
T03
X02995Y03265
X0479Y0327
X04805Y04925
X03Y0493
M30
