G04*
G04 #@! TF.GenerationSoftware,Altium Limited,Altium Designer,22.10.1 (41)*
G04*
G04 Layer_Physical_Order=1*
G04 Layer_Color=255*
%FSTAX24Y24*%
%MOIN*%
G70*
G04*
G04 #@! TF.SameCoordinates,17841630-244F-4CFE-80E3-D5873E1B35FB*
G04*
G04*
G04 #@! TF.FilePolarity,Positive*
G04*
G01*
G75*
%ADD12C,0.0100*%
%ADD15R,0.0500X0.0394*%
%ADD16R,0.0551X0.0472*%
%ADD17R,0.0315X0.0472*%
%ADD18R,0.0433X0.0984*%
%ADD19R,0.1417X0.0921*%
%ADD33C,0.0150*%
%ADD34R,0.0750X0.0600*%
%ADD35O,0.0600X0.0750*%
%ADD36O,0.0750X0.0600*%
%ADD37R,0.0750X0.0600*%
%ADD38O,0.0750X0.0600*%
%ADD39R,0.0600X0.0750*%
%ADD40C,0.0400*%
%ADD41C,0.1181*%
G36*
X047701Y049847D02*
X04761Y049786D01*
X047514Y04969D01*
X047438Y049577D01*
X047386Y049451D01*
X047359Y049318D01*
Y049182D01*
X047386Y049049D01*
X047438Y048923D01*
X047514Y04881D01*
X04761Y048714D01*
X047723Y048638D01*
X047849Y048586D01*
X047982Y048559D01*
X048118D01*
X048251Y048586D01*
X048377Y048638D01*
X04849Y048714D01*
X048586Y04881D01*
X048662Y048923D01*
X048697Y049008D01*
X048747Y048998D01*
Y032003D01*
X048152D01*
X048142Y032053D01*
X048227Y032088D01*
X04834Y032164D01*
X048436Y03226D01*
X048512Y032373D01*
X048564Y032499D01*
X048591Y032632D01*
Y032768D01*
X048564Y032901D01*
X048512Y033027D01*
X048436Y03314D01*
X04834Y033236D01*
X048227Y033312D01*
X048101Y033364D01*
X047968Y033391D01*
X047832D01*
X047699Y033364D01*
X047573Y033312D01*
X04746Y033236D01*
X047364Y03314D01*
X047288Y033027D01*
X047236Y032901D01*
X047209Y032768D01*
Y032632D01*
X047236Y032499D01*
X047288Y032373D01*
X047364Y03226D01*
X04746Y032164D01*
X047573Y032088D01*
X047658Y032053D01*
X047648Y032003D01*
X030315D01*
X030299Y032053D01*
X03039Y032114D01*
X030486Y03221D01*
X030562Y032323D01*
X030614Y032449D01*
X030641Y032582D01*
Y032718D01*
X030614Y032851D01*
X03058Y032933D01*
X030623Y032961D01*
X031281Y032303D01*
X031331Y032269D01*
X031389Y032258D01*
X040019D01*
X040084Y03222D01*
X04016Y0322D01*
X04024D01*
X040316Y03222D01*
X040384Y03226D01*
X04044Y032316D01*
X04048Y032384D01*
X0405Y03246D01*
Y03254D01*
X04048Y032616D01*
X04044Y032684D01*
X040384Y03274D01*
X040316Y03278D01*
X04024Y0328D01*
X04016D01*
X040084Y03278D01*
X040016Y03274D01*
X03996Y032684D01*
X03992Y032616D01*
X039906Y032564D01*
X039645D01*
X039626Y03261D01*
X040308Y033292D01*
X040341Y033341D01*
X040353Y0334D01*
Y034787D01*
X040399Y034807D01*
X040406Y0348D01*
X040474Y03476D01*
X04055Y03474D01*
X04063D01*
X040664Y034749D01*
X040747Y034667D01*
Y033408D01*
X040643D01*
Y032736D01*
X041157D01*
Y033408D01*
X041053D01*
Y03473D01*
X041041Y034789D01*
X041008Y034838D01*
X040881Y034966D01*
X04089Y035001D01*
Y03508D01*
X04087Y035156D01*
X04083Y035224D01*
X040774Y03528D01*
X040706Y03532D01*
X040653Y035334D01*
Y035492D01*
X04085D01*
Y035828D01*
X04095D01*
Y035492D01*
X04115D01*
X041157Y035492D01*
X0412Y035474D01*
Y035461D01*
X04122Y035384D01*
X04126Y035316D01*
X041316Y03526D01*
X041384Y03522D01*
X04145Y035203D01*
Y0355D01*
X0415D01*
Y03555D01*
X041797D01*
X04178Y035616D01*
X041773Y035627D01*
X041805Y035672D01*
X04183Y035667D01*
X042443D01*
Y035492D01*
X042957D01*
Y035677D01*
X04531D01*
X046895Y034092D01*
X046945Y034059D01*
X047003Y034047D01*
X048341D01*
X0484Y034059D01*
X04845Y034092D01*
X048508Y03415D01*
X048541Y0342D01*
X048553Y034259D01*
Y035291D01*
X048541Y03535D01*
X048508Y0354D01*
X04845Y035458D01*
X0484Y035491D01*
X048341Y035503D01*
X048158D01*
X048141Y03555D01*
X04816Y035565D01*
X048224Y035648D01*
X048265Y035746D01*
X048272Y0358D01*
X0478D01*
Y03585D01*
X04775D01*
Y036253D01*
X047725D01*
X047621Y03624D01*
X047523Y036199D01*
X04744Y036135D01*
X047417Y036106D01*
X047377Y036135D01*
X047391Y036157D01*
X047403Y036216D01*
Y036536D01*
X047453Y036555D01*
X047523Y036501D01*
X047621Y03646D01*
X047725Y036447D01*
X047875D01*
X047979Y03646D01*
X048077Y036501D01*
X04816Y036565D01*
X048224Y036648D01*
X048265Y036746D01*
X048278Y03685D01*
X048265Y036954D01*
X048224Y037052D01*
X04816Y037135D01*
X048141Y03715D01*
X048158Y037197D01*
X0482D01*
X048259Y037209D01*
X048308Y037242D01*
X048458Y037392D01*
X048491Y037441D01*
X048503Y0375D01*
Y03938D01*
X048491Y039439D01*
X048458Y039488D01*
X048246Y0397D01*
X048265Y039746D01*
X048278Y03985D01*
X048265Y039954D01*
X048224Y040052D01*
X04816Y040135D01*
X048141Y04015D01*
X048158Y040197D01*
X0482D01*
X048259Y040209D01*
X048308Y040242D01*
X048458Y040392D01*
X048491Y040441D01*
X048503Y0405D01*
Y0415D01*
X048491Y041559D01*
X048458Y041608D01*
X048168Y041898D01*
X048119Y041931D01*
X04806Y041943D01*
X047938D01*
X04792Y041974D01*
X047864Y04203D01*
X04783Y04205D01*
X047843Y0421D01*
X048575D01*
Y0429D01*
X047892D01*
X047875Y042903D01*
X047849D01*
X047728Y043024D01*
Y04316D01*
X047778Y043185D01*
X047823Y043151D01*
X047921Y04311D01*
X048025Y043097D01*
X04805D01*
Y0435D01*
Y043903D01*
X048025D01*
X047921Y04389D01*
X047823Y043849D01*
X047778Y043815D01*
X047728Y04384D01*
Y0449D01*
X0481D01*
Y0453D01*
Y0457D01*
X047728D01*
Y045776D01*
X047894Y045942D01*
X047971Y04591D01*
X048075Y045897D01*
X048225D01*
X048329Y04591D01*
X048427Y045951D01*
X04851Y046015D01*
X048574Y046098D01*
X048615Y046196D01*
X048628Y0463D01*
X048615Y046404D01*
X048574Y046502D01*
X04851Y046585D01*
X048427Y046649D01*
X048329Y04669D01*
X048225Y046703D01*
X048075D01*
X047971Y04669D01*
X047873Y046649D01*
X04779Y046585D01*
X047726Y046502D01*
X047685Y046404D01*
X047672Y0463D01*
X04768Y046233D01*
X047453Y046005D01*
X047403Y046026D01*
Y046337D01*
X047976Y04691D01*
X048075Y046897D01*
X048225D01*
X048329Y04691D01*
X048427Y046951D01*
X04851Y047015D01*
X048574Y047098D01*
X048615Y047196D01*
X048628Y0473D01*
X048615Y047404D01*
X048574Y047502D01*
X04851Y047585D01*
X048427Y047649D01*
X048329Y04769D01*
X048225Y047703D01*
X048075D01*
X047971Y04769D01*
X047873Y047649D01*
X04779Y047585D01*
X047726Y047502D01*
X047685Y047404D01*
X047672Y0473D01*
X047685Y047196D01*
X047726Y047098D01*
X047728Y047095D01*
X047142Y046508D01*
X047117Y04647D01*
X047061Y046455D01*
X046872Y046645D01*
X046874Y046648D01*
X046915Y046746D01*
X046928Y04685D01*
X046915Y046954D01*
X046874Y047052D01*
X04681Y047135D01*
X046727Y047199D01*
X046629Y04724D01*
X046525Y047253D01*
X046375D01*
X046271Y04724D01*
X046173Y047199D01*
X04609Y047135D01*
X046026Y047052D01*
X045985Y046954D01*
X045972Y04685D01*
X045985Y046746D01*
X046026Y046648D01*
X04609Y046565D01*
X046173Y046501D01*
X046271Y04646D01*
X046375Y046447D01*
X046525D01*
X046624Y04646D01*
X046847Y046237D01*
Y046164D01*
X046797Y046145D01*
X046727Y046199D01*
X046629Y04624D01*
X046525Y046253D01*
X046375D01*
X046271Y04624D01*
X046173Y046199D01*
X04609Y046135D01*
X046026Y046052D01*
X045985Y045954D01*
X045972Y04585D01*
X045985Y045746D01*
X046026Y045648D01*
X04609Y045565D01*
X046173Y045501D01*
X046271Y04546D01*
X046375Y045447D01*
X046525D01*
X046629Y04546D01*
X046727Y045501D01*
X046797Y045555D01*
X046847Y045536D01*
Y045164D01*
X046797Y045145D01*
X046727Y045199D01*
X046629Y04524D01*
X046525Y045253D01*
X046375D01*
X046271Y04524D01*
X046173Y045199D01*
X04609Y045135D01*
X046026Y045052D01*
X045985Y044954D01*
X045972Y04485D01*
X045985Y044746D01*
X046013Y044679D01*
X045734Y0444D01*
X045688Y04442D01*
Y046299D01*
X045724Y04632D01*
X04578Y046376D01*
X04582Y046444D01*
X04584Y046521D01*
Y046599D01*
X04582Y046676D01*
X04578Y046744D01*
X045724Y0468D01*
X045656Y04684D01*
X04558Y04686D01*
X0455D01*
X045424Y04684D01*
X045356Y0468D01*
X0453Y046744D01*
X045273Y046698D01*
X045223Y046712D01*
Y046926D01*
X045969Y047672D01*
X046016D01*
X046026Y047648D01*
X04609Y047565D01*
X046173Y047501D01*
X046271Y04746D01*
X046375Y047447D01*
X046525D01*
X046629Y04746D01*
X046727Y047501D01*
X04681Y047565D01*
X046874Y047648D01*
X046915Y047746D01*
X046928Y04785D01*
X046915Y047954D01*
X046874Y048052D01*
X04681Y048135D01*
X046727Y048199D01*
X046629Y04824D01*
X046525Y048253D01*
X046375D01*
X046271Y04824D01*
X046173Y048199D01*
X04609Y048135D01*
X046026Y048052D01*
X046016Y048028D01*
X045895D01*
X045895Y048028D01*
X045827Y048015D01*
X045769Y047976D01*
X045769Y047976D01*
X044919Y047126D01*
X04488Y047068D01*
X044867Y047D01*
Y046225D01*
X044872Y0462D01*
X044836Y04615D01*
X044759Y04613D01*
X044691Y04609D01*
X044635Y046034D01*
X044595Y045966D01*
X044575Y04589D01*
Y04581D01*
X044595Y045734D01*
X044635Y045666D01*
X044691Y04561D01*
X044722Y045592D01*
Y044488D01*
X044454Y04422D01*
X044415Y044252D01*
X044441Y044291D01*
X044453Y04435D01*
Y04654D01*
X044441Y046599D01*
X044408Y046648D01*
X043568Y047488D01*
X043519Y047521D01*
X04346Y047533D01*
X041918D01*
X0419Y047564D01*
X041844Y04762D01*
X041776Y04766D01*
X0417Y04768D01*
X04162D01*
X041544Y04766D01*
X041476Y04762D01*
X04142Y047564D01*
X04138Y047496D01*
X04136Y04742D01*
Y04734D01*
X04138Y047264D01*
X04142Y047196D01*
X041476Y04714D01*
X041544Y0471D01*
X04162Y04708D01*
X0417D01*
X041776Y0471D01*
X041844Y04714D01*
X0419Y047196D01*
X041918Y047227D01*
X043397D01*
X044147Y046477D01*
Y044413D01*
X044103Y044369D01*
X044059Y044383D01*
X044053Y044388D01*
Y046109D01*
X044041Y046167D01*
X044034Y046178D01*
X04405Y046204D01*
X04407Y04628D01*
Y04636D01*
X04405Y046436D01*
X04401Y046504D01*
X043954Y04656D01*
X043886Y0466D01*
X043809Y04662D01*
X043731D01*
X043654Y0466D01*
X043586Y04656D01*
X04353Y046504D01*
X04349Y046436D01*
X04347Y04636D01*
Y04628D01*
X04349Y046204D01*
X04353Y046136D01*
X043586Y04608D01*
X043654Y04604D01*
X043731Y04602D01*
X043747D01*
Y044255D01*
X043702Y04423D01*
X043697Y04423D01*
X043635Y04431D01*
X043552Y044374D01*
X043454Y044415D01*
X0434Y044422D01*
Y04395D01*
X0433D01*
Y044422D01*
X043246Y044415D01*
X043148Y044374D01*
X043073Y044317D01*
X043023Y04433D01*
Y044707D01*
X043181Y044864D01*
X043215Y044855D01*
X043295D01*
X043371Y044875D01*
X043439Y044915D01*
X043495Y044971D01*
X043535Y045039D01*
X043555Y045115D01*
Y045195D01*
X043535Y045271D01*
X043495Y045339D01*
X043439Y045395D01*
X043371Y045435D01*
X043295Y045455D01*
X043215D01*
X043139Y045435D01*
X043071Y045395D01*
X043015Y045339D01*
X042975Y045271D01*
X042955Y045195D01*
Y045115D01*
X042964Y045081D01*
X042762Y044878D01*
X042736Y04484D01*
X042692Y044841D01*
X042683Y044844D01*
X04267Y044896D01*
X04263Y044964D01*
X042574Y04502D01*
X042506Y04506D01*
X042429Y04508D01*
X042351D01*
X042316Y045071D01*
X041161Y046226D01*
X04117Y04626D01*
Y04634D01*
X04115Y046416D01*
X04111Y046484D01*
X041054Y04654D01*
X040986Y04658D01*
X04091Y0466D01*
X04083D01*
X040754Y04658D01*
X040686Y04654D01*
X04063Y046484D01*
X04059Y046416D01*
X04057Y04634D01*
Y04626D01*
X04059Y046184D01*
X04063Y046116D01*
X040686Y04606D01*
X040754Y04602D01*
X04083Y046D01*
X04091D01*
X040944Y046009D01*
X042099Y044854D01*
X04209Y044819D01*
Y044741D01*
X04211Y044664D01*
X04215Y044596D01*
X042206Y04454D01*
X042274Y0445D01*
X042351Y04448D01*
X042429D01*
X042506Y0445D01*
X042574Y04454D01*
X04263Y044596D01*
X042644Y04462D01*
X042711Y044638D01*
X042717Y044634D01*
Y044286D01*
X042667Y044269D01*
X042635Y04431D01*
X042552Y044374D01*
X042454Y044415D01*
X04235Y044428D01*
X042246Y044415D01*
X042148Y044374D01*
X042065Y04431D01*
X042056Y044299D01*
X042008Y044315D01*
Y0445D01*
X041995Y044568D01*
X041956Y044626D01*
X041656Y044926D01*
X041598Y044965D01*
X04153Y044978D01*
X03813D01*
X038062Y044965D01*
X038004Y044926D01*
X037704Y044626D01*
X037665Y044568D01*
X037652Y0445D01*
Y044361D01*
X037602Y044336D01*
X037552Y044374D01*
X037503Y044395D01*
Y048D01*
X037491Y048059D01*
X037458Y048108D01*
X036608Y048958D01*
X036559Y048991D01*
X0365Y049003D01*
X03217D01*
X032111Y048991D01*
X032062Y048958D01*
X031642Y048538D01*
X031609Y048489D01*
X031597Y04843D01*
Y044475D01*
X031547Y04446D01*
X031528Y044488D01*
X03084Y045176D01*
X030853Y045275D01*
Y045425D01*
X03084Y045529D01*
X030799Y045627D01*
X030735Y04571D01*
X030652Y045774D01*
X030554Y045815D01*
X030478Y045825D01*
Y045875D01*
X030554Y045885D01*
X030652Y045926D01*
X030735Y04599D01*
X030799Y046073D01*
X03084Y046171D01*
X030853Y046275D01*
Y046425D01*
X03084Y046529D01*
X030799Y046627D01*
X030735Y04671D01*
X030652Y046774D01*
X030554Y046815D01*
X030478Y046825D01*
Y046875D01*
X030554Y046885D01*
X030652Y046926D01*
X030735Y04699D01*
X030799Y047073D01*
X03084Y047171D01*
X030853Y047275D01*
Y047425D01*
X03084Y047529D01*
X030799Y047627D01*
X030735Y04771D01*
X030652Y047774D01*
X030554Y047815D01*
X03045Y047828D01*
X030346Y047815D01*
X030248Y047774D01*
X030245Y047772D01*
X030212Y047809D01*
X031562Y049159D01*
X03161Y049166D01*
X031666Y04911D01*
X031734Y04907D01*
X031811Y04905D01*
X03189D01*
X031966Y04907D01*
X032034Y04911D01*
X03209Y049166D01*
X03213Y049234D01*
X03215Y04931D01*
Y04939D01*
X03213Y049466D01*
X03209Y049534D01*
X032034Y04959D01*
X031966Y04963D01*
X03189Y04965D01*
X031811D01*
X031734Y04963D01*
X031666Y04959D01*
X03161Y049534D01*
X031607Y049528D01*
X0315D01*
X031432Y049515D01*
X031374Y049476D01*
X029594Y047696D01*
X029555Y047638D01*
X029542Y04757D01*
Y03688D01*
X029555Y036812D01*
X029594Y036754D01*
X029967Y036381D01*
X029935Y036304D01*
X029922Y0362D01*
X029935Y036096D01*
X029976Y035998D01*
X03004Y035915D01*
X030123Y035851D01*
X030221Y03581D01*
X030325Y035797D01*
X030475D01*
X030579Y03581D01*
X030677Y035851D01*
X03076Y035915D01*
X030824Y035998D01*
X030865Y036096D01*
X030878Y0362D01*
X030865Y036304D01*
X030824Y036402D01*
X03076Y036485D01*
X030677Y036549D01*
X030579Y03659D01*
X030475Y036603D01*
X030325D01*
X030258Y036595D01*
X030099Y036754D01*
X030118Y0368D01*
X03035D01*
Y0372D01*
Y0376D01*
X029925D01*
X029898Y037639D01*
Y041584D01*
X029945Y041603D01*
X030055Y041492D01*
X030047Y041425D01*
Y041275D01*
X03006Y041171D01*
X030101Y041073D01*
X030165Y04099D01*
X030248Y040926D01*
X030346Y040885D01*
X030424Y040875D01*
X03042Y040825D01*
X03005D01*
Y0404D01*
X03085D01*
Y040825D01*
X03048D01*
X030476Y040875D01*
X030554Y040885D01*
X030652Y040926D01*
X030735Y04099D01*
X030799Y041073D01*
X03084Y041171D01*
X030853Y041275D01*
Y041425D01*
X03084Y041529D01*
X030799Y041627D01*
X030735Y04171D01*
X030652Y041774D01*
X030554Y041815D01*
X030478Y041825D01*
Y041875D01*
X030554Y041885D01*
X030652Y041926D01*
X030735Y04199D01*
X030799Y042073D01*
X03084Y042171D01*
X030853Y042275D01*
Y042425D01*
X03084Y042529D01*
X030799Y042627D01*
X030735Y04271D01*
X030652Y042774D01*
X030554Y042815D01*
X030478Y042825D01*
Y042875D01*
X030554Y042885D01*
X030652Y042926D01*
X030735Y04299D01*
X030799Y043073D01*
X03084Y043171D01*
X030853Y043275D01*
Y043425D01*
X03084Y043529D01*
X030799Y043627D01*
X030735Y04371D01*
X030652Y043774D01*
X030554Y043815D01*
X030478Y043825D01*
Y043875D01*
X030554Y043885D01*
X030652Y043926D01*
X030655Y043928D01*
X030987Y043597D01*
Y0342D01*
X030999Y034141D01*
X031032Y034092D01*
X032514Y03261D01*
X032495Y032564D01*
X031453D01*
X030262Y033754D01*
X030285Y033802D01*
X030325Y033797D01*
X030475D01*
X030579Y03381D01*
X030677Y033851D01*
X03076Y033915D01*
X030824Y033998D01*
X030865Y034096D01*
X030878Y0342D01*
X030865Y034304D01*
X030824Y034402D01*
X03076Y034485D01*
X030677Y034549D01*
X030579Y03459D01*
X030475Y034603D01*
X030325D01*
X030221Y03459D01*
X030123Y034549D01*
X03004Y034485D01*
X029976Y034402D01*
X029953Y034347D01*
X029903Y034357D01*
Y034687D01*
X030091Y034875D01*
X030123Y034851D01*
X030221Y03481D01*
X030325Y034797D01*
X030475D01*
X030579Y03481D01*
X030677Y034851D01*
X03076Y034915D01*
X030824Y034998D01*
X030865Y035096D01*
X030878Y0352D01*
X030865Y035304D01*
X030824Y035402D01*
X03076Y035485D01*
X030677Y035549D01*
X030579Y03559D01*
X030475Y035603D01*
X030325D01*
X030221Y03559D01*
X030123Y035549D01*
X03004Y035485D01*
X029976Y035402D01*
X029935Y035304D01*
X029922Y0352D01*
X029929Y035145D01*
X029642Y034858D01*
X029609Y034809D01*
X029597Y03475D01*
Y03405D01*
X029609Y033991D01*
X029642Y033942D01*
X030261Y033323D01*
X030233Y03328D01*
X030151Y033314D01*
X030018Y033341D01*
X029882D01*
X029749Y033314D01*
X029623Y033262D01*
X02951Y033186D01*
X029414Y03309D01*
X029401Y033071D01*
X029353Y033086D01*
Y048935D01*
X029403Y048951D01*
X029464Y04886D01*
X02956Y048764D01*
X029673Y048688D01*
X029799Y048636D01*
X029932Y048609D01*
X030068D01*
X030201Y048636D01*
X030327Y048688D01*
X03044Y048764D01*
X030536Y04886D01*
X030612Y048973D01*
X030664Y049099D01*
X030691Y049232D01*
Y049368D01*
X030664Y049501D01*
X030612Y049627D01*
X030536Y04974D01*
X03044Y049836D01*
X030421Y049849D01*
X030436Y049897D01*
X047685D01*
X047701Y049847D01*
D02*
G37*
G36*
X037197Y047937D02*
Y044395D01*
X037148Y044374D01*
X037065Y04431D01*
X037033Y044269D01*
X036983Y044286D01*
Y0445D01*
X036971Y044559D01*
X036938Y044608D01*
X036628Y044918D01*
X036579Y044951D01*
X03652Y044963D01*
X035038D01*
X03502Y044994D01*
X034964Y04505D01*
X034896Y04509D01*
X03482Y04511D01*
X034741D01*
X034664Y04509D01*
X034596Y04505D01*
X03454Y044994D01*
X0345Y044926D01*
X03448Y04485D01*
Y04477D01*
X0345Y044694D01*
X03454Y044626D01*
X034596Y04457D01*
X034664Y04453D01*
X034741Y04451D01*
X03482D01*
X034896Y04453D01*
X034964Y04457D01*
X03502Y044626D01*
X035038Y044657D01*
X036457D01*
X036677Y044437D01*
Y04433D01*
X036627Y044317D01*
X036552Y044374D01*
X036454Y044415D01*
X03635Y044428D01*
X036246Y044415D01*
X036148Y044374D01*
X036065Y04431D01*
X036001Y044227D01*
X03596Y044129D01*
X035947Y044025D01*
Y043875D01*
X03596Y043771D01*
X036001Y043673D01*
X036048Y043612D01*
X036013Y043575D01*
X035989Y043591D01*
X03593Y043603D01*
X035708D01*
X035691Y04365D01*
X03571Y043665D01*
X035774Y043748D01*
X035815Y043846D01*
X035822Y0439D01*
X034878D01*
X034885Y043846D01*
X034926Y043748D01*
X03499Y043665D01*
X035009Y04365D01*
X034992Y043603D01*
X034709D01*
X03465Y043591D01*
X0346Y043558D01*
X034542Y0435D01*
X034509Y04345D01*
X034497Y043391D01*
Y041935D01*
X034509Y041876D01*
X034542Y041827D01*
X035989Y04038D01*
X035968Y04033D01*
X035921D01*
X035844Y04031D01*
X035776Y04027D01*
X03572Y040214D01*
X03568Y040146D01*
X03566Y040069D01*
Y03999D01*
X03568Y039914D01*
X03572Y039846D01*
X035776Y03979D01*
X035844Y03975D01*
X035921Y03973D01*
X036D01*
X036002Y039728D01*
Y038344D01*
X035172Y037514D01*
X035139Y037464D01*
X035127Y037406D01*
Y037208D01*
X035096Y03719D01*
X03504Y037134D01*
X035Y037066D01*
X03498Y03699D01*
Y036911D01*
X035Y036834D01*
X03504Y036766D01*
X035096Y03671D01*
X035164Y03667D01*
X03524Y03665D01*
X035319D01*
X035396Y03667D01*
X035464Y03671D01*
X03552Y036766D01*
X03556Y036834D01*
X03558Y036911D01*
Y03699D01*
X03556Y037066D01*
X03552Y037134D01*
X035464Y03719D01*
X035433Y037208D01*
Y037342D01*
X036263Y038173D01*
X036296Y038222D01*
X036308Y038281D01*
Y039835D01*
X036296Y039894D01*
X036263Y039943D01*
X036251Y039956D01*
X03626Y03999D01*
Y040038D01*
X03631Y040059D01*
X036447Y039922D01*
Y03939D01*
X036459Y039331D01*
X036492Y039282D01*
X037102Y038672D01*
Y037923D01*
X036895D01*
Y037331D01*
X036844D01*
D01*
X036895D01*
Y036739D01*
X037102D01*
Y036393D01*
X037052Y036372D01*
X037034Y03639D01*
X036966Y03643D01*
X03689Y03645D01*
X036811D01*
X036734Y03643D01*
X036666Y03639D01*
X03661Y036334D01*
X03657Y036266D01*
X03655Y036189D01*
Y03611D01*
X03657Y036034D01*
X03661Y035966D01*
X036666Y03591D01*
X036697Y035892D01*
Y035313D01*
X036512Y035128D01*
X035267D01*
X035247Y035178D01*
X03528Y035234D01*
X0353Y03531D01*
Y035389D01*
X03528Y035466D01*
X03524Y035534D01*
X035184Y03559D01*
X035116Y03563D01*
X03504Y03565D01*
X03496D01*
X034884Y03563D01*
X034822Y035594D01*
X03422Y036196D01*
X034252Y036235D01*
X034291Y036209D01*
X03435Y036197D01*
X034397D01*
X034415Y036166D01*
X034471Y03611D01*
X034539Y03607D01*
X034615Y03605D01*
X034694D01*
X034771Y03607D01*
X034839Y03611D01*
X034895Y036166D01*
X034935Y036234D01*
X034955Y036311D01*
Y03639D01*
X034935Y036466D01*
X034895Y036534D01*
X034839Y03659D01*
X034771Y03663D01*
X034694Y03665D01*
X034615D01*
X034539Y03663D01*
X034471Y03659D01*
X034415Y036534D01*
X034386Y03653D01*
X033998Y036918D01*
Y038003D01*
X034048Y038023D01*
X034104Y03799D01*
X034181Y03797D01*
X03426D01*
X034336Y03799D01*
X034404Y03803D01*
X03446Y038086D01*
X0345Y038154D01*
X03452Y038231D01*
Y03831D01*
X034511Y038344D01*
X034947Y038781D01*
X035004Y038775D01*
X03501Y038766D01*
X035066Y03871D01*
X035134Y03867D01*
X03521Y03865D01*
X035289D01*
X035366Y03867D01*
X035434Y03871D01*
X03549Y038766D01*
X03553Y038834D01*
X03555Y038911D01*
Y03899D01*
X03553Y039066D01*
X03549Y039134D01*
X035434Y03919D01*
X035366Y03923D01*
X035289Y03925D01*
X03521D01*
X035134Y03923D01*
X035066Y03919D01*
X03501Y039134D01*
X034992Y039103D01*
X0349D01*
X034841Y039091D01*
X034792Y039058D01*
X034294Y038561D01*
X03426Y03857D01*
X034181D01*
X034104Y03855D01*
X034048Y038517D01*
X033998Y038537D01*
Y039466D01*
X034016Y03947D01*
X034084Y03951D01*
X03414Y039566D01*
X03418Y039634D01*
X0342Y039711D01*
Y03979D01*
X03418Y039866D01*
X03414Y039934D01*
X034084Y03999D01*
X034016Y04003D01*
X033939Y04005D01*
X03386D01*
X033784Y04003D01*
X033716Y03999D01*
X03366Y039934D01*
X03362Y039866D01*
X0336Y03979D01*
Y039711D01*
X03362Y039634D01*
X03366Y039566D01*
X033692Y039534D01*
Y036855D01*
X033704Y036796D01*
X03373Y036757D01*
X033691Y036725D01*
X033603Y036813D01*
Y0379D01*
X033591Y037959D01*
X033558Y038008D01*
X033258Y038308D01*
X033209Y038341D01*
X03315Y038353D01*
X033108D01*
X033091Y0384D01*
X03311Y038415D01*
X033174Y038498D01*
X033215Y038596D01*
X033228Y0387D01*
X033215Y038804D01*
X033174Y038902D01*
X03311Y038985D01*
X033027Y039049D01*
X032929Y03909D01*
X032825Y039103D01*
X032675D01*
X032571Y03909D01*
X032473Y039049D01*
X03239Y038985D01*
X032326Y038902D01*
X032303Y038847D01*
X032253Y038857D01*
Y039543D01*
X032303Y039553D01*
X032326Y039498D01*
X03239Y039415D01*
X032473Y039351D01*
X032571Y03931D01*
X032675Y039297D01*
X0327D01*
Y0397D01*
Y040103D01*
X032675D01*
X032571Y04009D01*
X032473Y040049D01*
X03239Y039985D01*
X032326Y039902D01*
X032303Y039847D01*
X032253Y039857D01*
Y040259D01*
X032275Y0403D01*
X032303Y0403D01*
X033225D01*
Y0411D01*
X032303D01*
X032275Y0411D01*
X032253Y041141D01*
Y041934D01*
X032316Y04195D01*
X032384Y04199D01*
X03244Y042046D01*
X03248Y042114D01*
X0325Y04219D01*
Y04227D01*
X03248Y042346D01*
X03244Y042414D01*
X032384Y04247D01*
X032316Y04251D01*
X032239Y04253D01*
X03216D01*
X032084Y04251D01*
X032016Y04247D01*
X03196Y042414D01*
X031953Y042402D01*
X031903Y042415D01*
Y048367D01*
X032009Y048473D01*
X032056Y048449D01*
X032047Y048375D01*
Y04835D01*
X03245D01*
X032853D01*
Y048375D01*
X03284Y048479D01*
X032799Y048577D01*
X032745Y048647D01*
X032764Y048697D01*
X03505D01*
Y047825D01*
X03542D01*
X035424Y047775D01*
X035346Y047765D01*
X035248Y047724D01*
X035165Y04766D01*
X035101Y047577D01*
X03506Y047479D01*
X035047Y047375D01*
Y047225D01*
X03506Y047121D01*
X035101Y047023D01*
X035165Y04694D01*
X035248Y046876D01*
X035346Y046835D01*
X035422Y046825D01*
Y046775D01*
X035346Y046765D01*
X035248Y046724D01*
X035165Y04666D01*
X035101Y046577D01*
X03506Y046479D01*
X035047Y046375D01*
Y046225D01*
X03506Y046121D01*
X035101Y046023D01*
X035165Y04594D01*
X035248Y045876D01*
X035346Y045835D01*
X03545Y045822D01*
X035554Y045835D01*
X035652Y045876D01*
X035735Y04594D01*
X035799Y046023D01*
X03584Y046121D01*
X035853Y046225D01*
Y046375D01*
X03584Y046479D01*
X035799Y046577D01*
X035735Y04666D01*
X035652Y046724D01*
X035554Y046765D01*
X035478Y046775D01*
Y046825D01*
X035554Y046835D01*
X035652Y046876D01*
X035735Y04694D01*
X035799Y047023D01*
X03584Y047121D01*
X035853Y047225D01*
Y047375D01*
X03584Y047479D01*
X035799Y047577D01*
X035735Y04766D01*
X035652Y047724D01*
X035554Y047765D01*
X035476Y047775D01*
X03548Y047825D01*
X03585D01*
Y048697D01*
X036437D01*
X037197Y047937D01*
D02*
G37*
G36*
X0465Y04245D02*
X046793D01*
X046814Y0424D01*
X046142Y041728D01*
X046109Y041679D01*
X046097Y04162D01*
Y039845D01*
X046109Y039786D01*
X046142Y039737D01*
X046179Y0397D01*
X046158Y03965D01*
X04613D01*
X046054Y03963D01*
X045988Y039591D01*
X045961Y039598D01*
X045938Y039608D01*
Y042419D01*
X045975Y04245D01*
X0464D01*
Y04285D01*
X0465D01*
Y04245D01*
D02*
G37*
G36*
X037766Y03806D02*
X037834Y03802D01*
X03791Y038D01*
X037989D01*
X038066Y03802D01*
X038117Y03805D01*
X038131Y038047D01*
X038947D01*
X038985Y037997D01*
X038978Y03797D01*
X038977Y037966D01*
X038977Y037966D01*
X038972Y037923D01*
X038947Y037923D01*
X038339D01*
Y036739D01*
X038477D01*
Y036644D01*
X038491Y036576D01*
X038529Y036518D01*
X039672Y035376D01*
Y034447D01*
X0394D01*
Y03415D01*
Y033853D01*
X039535D01*
X039555Y033807D01*
X039399Y033651D01*
X039396Y033647D01*
X039D01*
Y033246D01*
X038882Y033128D01*
X0387D01*
Y033647D01*
X038245D01*
X038228Y03365D01*
X03797D01*
X0379Y03372D01*
Y03374D01*
X03788Y033816D01*
X03784Y033884D01*
X037784Y03394D01*
X037716Y03398D01*
X03764Y034D01*
X037561D01*
X037484Y03398D01*
X037416Y03394D01*
X03736Y033884D01*
X037329Y033831D01*
X037241D01*
X0372Y033853D01*
Y0341D01*
X03685D01*
Y03415D01*
X0368D01*
Y034447D01*
X0365D01*
X036478Y034488D01*
Y034547D01*
X03782D01*
X037888Y03456D01*
X037946Y034599D01*
X038221Y034874D01*
X038221Y034874D01*
X03826Y034932D01*
X038273Y035D01*
X038273Y035D01*
Y036385D01*
X038273Y036385D01*
X03826Y036453D01*
X038221Y036511D01*
X038221Y036511D01*
X03804Y036692D01*
X038059Y036739D01*
X038067D01*
Y037923D01*
X037683D01*
Y038072D01*
X037733Y038092D01*
X037766Y03806D01*
D02*
G37*
%LPC*%
G36*
X048625Y0457D02*
X0482D01*
Y04535D01*
X048625D01*
Y0457D01*
D02*
G37*
G36*
Y04525D02*
X0482D01*
Y0449D01*
X048625D01*
Y04525D01*
D02*
G37*
G36*
X048175Y043903D02*
X04815D01*
Y04355D01*
X048572D01*
X048565Y043604D01*
X048524Y043702D01*
X04846Y043785D01*
X048377Y043849D01*
X048279Y04389D01*
X048175Y043903D01*
D02*
G37*
G36*
X048572Y04345D02*
X04815D01*
Y043097D01*
X048175D01*
X048279Y04311D01*
X048377Y043151D01*
X04846Y043215D01*
X048524Y043298D01*
X048565Y043396D01*
X048572Y04345D01*
D02*
G37*
G36*
X03085Y0403D02*
X0305D01*
Y039875D01*
X03085D01*
Y0403D01*
D02*
G37*
G36*
X0304D02*
X03005D01*
Y039875D01*
X0304D01*
Y0403D01*
D02*
G37*
G36*
X03045Y0376D02*
Y03725D01*
X030875D01*
Y0376D01*
X03045D01*
D02*
G37*
G36*
X030875Y03715D02*
X03045D01*
Y0368D01*
X030875D01*
Y03715D01*
D02*
G37*
G36*
X047875Y036253D02*
X04785D01*
Y0359D01*
X048272D01*
X048265Y035954D01*
X048224Y036052D01*
X04816Y036135D01*
X048077Y036199D01*
X047979Y03624D01*
X047875Y036253D01*
D02*
G37*
G36*
X041797Y03545D02*
X04155D01*
Y035203D01*
X041616Y03522D01*
X041684Y03526D01*
X04174Y035316D01*
X04178Y035384D01*
X041797Y03545D01*
D02*
G37*
G36*
X042957Y033408D02*
X04275D01*
Y033122D01*
X042957D01*
Y033408D01*
D02*
G37*
G36*
X04265D02*
X042443D01*
Y033122D01*
X04265D01*
Y033408D01*
D02*
G37*
G36*
X042957Y033022D02*
X04275D01*
Y032736D01*
X042957D01*
Y033022D01*
D02*
G37*
G36*
X04265D02*
X042443D01*
Y032736D01*
X04265D01*
Y033022D01*
D02*
G37*
G36*
X032853Y04825D02*
X03245D01*
X032047D01*
Y048225D01*
X03206Y048121D01*
X032101Y048023D01*
X032165Y04794D01*
X032248Y047876D01*
X032346Y047835D01*
X032422Y047825D01*
Y047775D01*
X032346Y047765D01*
X032248Y047724D01*
X032165Y04766D01*
X032101Y047577D01*
X03206Y047479D01*
X032047Y047375D01*
Y047225D01*
X03206Y047121D01*
X032101Y047023D01*
X032165Y04694D01*
X032248Y046876D01*
X032346Y046835D01*
X032422Y046825D01*
Y046775D01*
X032346Y046765D01*
X032248Y046724D01*
X032165Y04666D01*
X032101Y046577D01*
X03206Y046479D01*
X032047Y046375D01*
Y046225D01*
X03206Y046121D01*
X032101Y046023D01*
X032165Y04594D01*
X032248Y045876D01*
X032346Y045835D01*
X03245Y045822D01*
X032554Y045835D01*
X032652Y045876D01*
X032735Y04594D01*
X032799Y046023D01*
X03284Y046121D01*
X032853Y046225D01*
Y046375D01*
X03284Y046479D01*
X032799Y046577D01*
X032735Y04666D01*
X032652Y046724D01*
X032554Y046765D01*
X032478Y046775D01*
Y046825D01*
X032554Y046835D01*
X032652Y046876D01*
X032735Y04694D01*
X032799Y047023D01*
X03284Y047121D01*
X032853Y047225D01*
Y047375D01*
X03284Y047479D01*
X032799Y047577D01*
X032735Y04766D01*
X032652Y047724D01*
X032554Y047765D01*
X032478Y047775D01*
Y047825D01*
X032554Y047835D01*
X032652Y047876D01*
X032735Y04794D01*
X032799Y048023D01*
X03284Y048121D01*
X032853Y048225D01*
Y04825D01*
D02*
G37*
G36*
X035425Y044353D02*
X0354D01*
Y044D01*
X035822D01*
X035815Y044054D01*
X035774Y044152D01*
X03571Y044235D01*
X035627Y044299D01*
X035529Y04434D01*
X035425Y044353D01*
D02*
G37*
G36*
X0353D02*
X035275D01*
X035171Y04434D01*
X035073Y044299D01*
X03499Y044235D01*
X034926Y044152D01*
X034885Y044054D01*
X034878Y044D01*
X0353D01*
Y044353D01*
D02*
G37*
G36*
X032825Y040103D02*
X0328D01*
Y03975D01*
X033222D01*
X033215Y039804D01*
X033174Y039902D01*
X03311Y039985D01*
X033027Y040049D01*
X032929Y04009D01*
X032825Y040103D01*
D02*
G37*
G36*
X033222Y03965D02*
X0328D01*
Y039297D01*
X032825D01*
X032929Y03931D01*
X033027Y039351D01*
X03311Y039415D01*
X033174Y039498D01*
X033215Y039596D01*
X033222Y03965D01*
D02*
G37*
G36*
X036795Y037923D02*
X036528D01*
Y037381D01*
X036795D01*
Y037923D01*
D02*
G37*
G36*
Y037281D02*
X036528D01*
Y036739D01*
X036795D01*
Y037281D01*
D02*
G37*
G36*
X03885Y034997D02*
Y03475D01*
X039097D01*
X03908Y034816D01*
X03904Y034884D01*
X038984Y03494D01*
X038916Y03498D01*
X03885Y034997D01*
D02*
G37*
G36*
X03875D02*
X038684Y03498D01*
X038616Y03494D01*
X03856Y034884D01*
X03852Y034816D01*
X038503Y03475D01*
X03875D01*
Y034997D01*
D02*
G37*
G36*
Y03465D02*
X038503D01*
X03852Y034584D01*
X03856Y034516D01*
X038579Y034497D01*
X038558Y034447D01*
X0384D01*
Y0342D01*
X0387D01*
Y034375D01*
X03874Y034406D01*
X03875Y034403D01*
Y03465D01*
D02*
G37*
G36*
X039097D02*
X03885D01*
Y034403D01*
X038916Y03442D01*
X03895Y03444D01*
X039Y034411D01*
Y0342D01*
X0393D01*
Y034447D01*
X039042D01*
X039021Y034497D01*
X03904Y034516D01*
X03908Y034584D01*
X039097Y03465D01*
D02*
G37*
G36*
X0383Y034447D02*
X038D01*
Y0342D01*
X0383D01*
Y034447D01*
D02*
G37*
G36*
X0369D02*
Y0342D01*
X0372D01*
Y034447D01*
X0369D01*
D02*
G37*
G36*
X0393Y0341D02*
X039D01*
Y033853D01*
X0393D01*
Y0341D01*
D02*
G37*
G36*
X0387D02*
X0384D01*
Y033853D01*
X0387D01*
Y0341D01*
D02*
G37*
G36*
X0383D02*
X038D01*
Y033853D01*
X0383D01*
Y0341D01*
D02*
G37*
%LPD*%
D12*
X033573Y043145D02*
G03*
X033572Y043144I000067J-000074D01*
G01*
X03905Y0391D02*
Y041096D01*
X0387Y0386D02*
Y04094D01*
X03835Y04129D02*
X0387Y04094D01*
X03795Y0383D02*
X038031D01*
X038131Y0382D01*
X03904D02*
X0394Y03856D01*
X038131Y0382D02*
X03904D01*
X0388Y0342D02*
Y0347D01*
X03685Y0342D02*
X03835D01*
X0388D01*
X03185Y03775D02*
Y037831D01*
X031763Y037919D02*
Y037936D01*
Y037919D02*
X03185Y037831D01*
X02975Y03475D02*
X03045Y03545D01*
X02975Y03405D02*
Y03475D01*
Y03405D02*
X031389Y032411D01*
X04003D01*
X0304Y0403D02*
X03045Y04035D01*
X0304Y0372D02*
Y0403D01*
X04003Y032411D02*
X040119Y0325D01*
X0402D01*
X03322Y04823D02*
X0343Y04715D01*
Y0441D02*
X034449Y043951D01*
X0343Y0441D02*
Y04715D01*
X03354Y04039D02*
Y043112D01*
X033573Y043145D02*
X034449Y043951D01*
X033571Y043143D02*
X033572Y043144D01*
X03354Y043112D02*
X033571Y043143D01*
X034449Y043951D02*
X035349D01*
X0388Y0342D02*
X039275D01*
X039461Y032661D02*
X0402Y0334D01*
X032679Y032661D02*
X039461D01*
X0402Y0334D02*
Y035891D01*
X03887Y041276D02*
X03905Y041096D01*
X03596Y04003D02*
X036155Y039835D01*
Y038281D02*
Y039835D01*
X04102Y0406D02*
X04287Y04245D01*
X041Y0406D02*
X04102D01*
X040331Y042D02*
X0404D01*
X04005Y041719D02*
X040331Y042D01*
X04005Y04055D02*
Y041719D01*
X04287Y04245D02*
Y04477D01*
X0349Y03895D02*
X03525D01*
X03422Y03827D02*
X0349Y03895D01*
X04307Y0388D02*
X04435Y04008D01*
X04225Y0388D02*
X04307D01*
X046984Y03595D02*
X04725Y036216D01*
X04695Y03595D02*
X046984D01*
X04725Y036216D02*
Y0371D01*
X04515Y03765D02*
X045187D01*
X045535Y037998D01*
Y046555D01*
X04475Y037D02*
X0456D01*
X04445Y0373D02*
X04475Y037D01*
X045785Y037185D02*
Y044235D01*
X0456Y037D02*
X045785Y037185D01*
X04685Y03775D02*
X04725Y03815D01*
Y0401D01*
X036575Y034975D02*
X03685Y03525D01*
X033775Y034975D02*
X036575D01*
X03685Y03525D02*
Y03615D01*
X034943Y035407D02*
X035Y03535D01*
X03345Y03675D02*
X034793Y035407D01*
X034943D01*
X03345Y03675D02*
Y0379D01*
X04166Y04738D02*
X04346D01*
X0443Y04654D01*
X0464Y04485D02*
X04645D01*
X045785Y044235D02*
X0464Y04485D01*
X04645Y04685D02*
X047Y0463D01*
Y04237D02*
Y0463D01*
X04725Y04085D02*
Y0464D01*
X04815Y0473D01*
X0481Y0435D02*
X04815Y04355D01*
Y0453D01*
X0478Y03585D02*
X047856Y035794D01*
X048256D01*
X0487Y03535D01*
Y03415D02*
Y03535D01*
X0394Y03856D02*
Y0429D01*
X03935Y04295D02*
X0394Y0429D01*
X037255Y035465D02*
X03747Y03525D01*
X037255Y035465D02*
Y038735D01*
X0366Y03939D02*
X037255Y038735D01*
X0366Y03939D02*
Y039985D01*
X03465Y041935D02*
X0366Y039985D01*
X03465Y041935D02*
Y043391D01*
X034709Y04345D01*
X03593D01*
X04377Y046239D02*
Y04632D01*
Y046239D02*
X0439Y046109D01*
Y04045D02*
Y046109D01*
X0442Y0409D02*
X04435Y04075D01*
X0442Y04425D02*
X0443Y04435D01*
X0442Y0409D02*
Y04425D01*
X0443Y04435D02*
Y04654D01*
X04435Y04008D02*
Y04075D01*
X044875Y044425D02*
Y04585D01*
X04455Y039859D02*
Y0441D01*
X044875Y044425D01*
X042331Y03764D02*
X04455Y039859D01*
X0324Y0382D02*
X03315D01*
X03345Y0379D01*
X03237Y0352D02*
X03355D01*
X033775Y034975D01*
X03435Y03635D02*
X034655D01*
X033845Y036855D02*
X03435Y03635D01*
X033845Y036855D02*
Y039695D01*
X0339Y03975D01*
X03652Y04481D02*
X03683Y0445D01*
X03478Y04481D02*
X03652D01*
X03175Y04843D02*
X03217Y04885D01*
X03175Y037949D02*
X031763Y037936D01*
X03175Y037949D02*
Y04843D01*
X0322Y042149D02*
Y04223D01*
X0321Y0385D02*
Y042049D01*
Y0385D02*
X0324Y0382D01*
X0321Y042049D02*
X0322Y042149D01*
X03354Y04039D02*
X03467D01*
X035905Y039155D01*
X03285Y0397D02*
X03354Y04039D01*
X03275Y0397D02*
X03285D01*
X04835Y0375D02*
Y03938D01*
X04788Y03985D02*
X04835Y03938D01*
X0478Y03985D02*
X04788D01*
X04013Y0361D02*
X040187Y036043D01*
Y035904D02*
X0402Y035891D01*
X040187Y035904D02*
Y036043D01*
X0398Y036981D02*
X0405Y036281D01*
Y035211D02*
X04059Y035121D01*
Y03504D02*
Y035121D01*
X0405Y035211D02*
Y036281D01*
X0409Y033072D02*
Y03473D01*
X04059Y03504D02*
X0409Y03473D01*
X0398Y03785D02*
X039974Y038024D01*
X0398Y036981D02*
Y03785D01*
X040161Y03825D02*
X0402D01*
X039974Y038064D02*
X040161Y03825D01*
X039974Y038024D02*
Y038064D01*
X040334Y036947D02*
X040812Y036469D01*
X041181D01*
X04183Y03582D01*
X040334Y036947D02*
Y037574D01*
X04183Y03582D02*
X0427D01*
X0415Y03725D02*
X042752D01*
X04491Y039408D01*
X04109Y03764D02*
X042331D01*
X0407Y03725D02*
X04109Y03764D01*
X0409Y035828D02*
X041172D01*
X0415Y0355D01*
X0409Y03535D02*
Y035828D01*
X0427Y033072D02*
X044422D01*
X04515Y0338D02*
X04835D01*
X044422Y033072D02*
X04515Y0338D01*
X0427Y0332D02*
Y03355D01*
Y033072D02*
Y0332D01*
Y03308D02*
Y0332D01*
X042749D01*
X04835Y0338D02*
X0487Y03415D01*
X04689Y03535D02*
X048341D01*
X047003Y0342D02*
X048341D01*
Y03535D02*
X0484Y035291D01*
Y034259D02*
Y035291D01*
X048341Y0342D02*
X0484Y034259D01*
X045373Y03583D02*
X047003Y0342D01*
X03114D02*
Y04366D01*
X03045Y04435D02*
X03114Y04366D01*
X0427Y03583D02*
X045373D01*
X03626Y03706D02*
X036844D01*
X03245Y04823D02*
X03322D01*
X04617Y03607D02*
Y03935D01*
Y03607D02*
X04689Y03535D01*
X0427Y035828D02*
Y03583D01*
X039277Y037927D02*
X039645Y038295D01*
Y042045D01*
X04Y0424D01*
X04135D01*
Y04295D01*
X036844Y03706D02*
Y037331D01*
X03577Y03657D02*
X03626Y03706D01*
X035085Y03657D02*
X03577D01*
X034905Y03675D02*
X035085Y03657D01*
X034905Y03675D02*
Y037725D01*
X035905Y038725D01*
Y039155D01*
X0427Y033072D02*
Y03308D01*
X0409Y03535D02*
X0427Y03355D01*
X0481Y0435D02*
X04865Y04295D01*
Y0367D02*
Y04295D01*
X0478Y03585D02*
X04865Y0367D01*
X03735Y04395D02*
Y048D01*
X0365Y04885D02*
X03735Y048D01*
X03217Y04885D02*
X0365D01*
X03114Y0342D02*
X032679Y032661D01*
X04287Y04477D02*
X043255Y045155D01*
X0482Y03735D02*
X04835Y0375D01*
X0475Y03735D02*
X0482D01*
X04725Y0371D02*
X0475Y03735D01*
X04087Y0463D02*
X04239Y04478D01*
X04768Y04179D02*
X04806D01*
X04835Y0415D01*
Y0405D02*
Y0415D01*
X0482Y04035D02*
X04835Y0405D01*
X0475Y04035D02*
X0482D01*
X04725Y0401D02*
X0475Y04035D01*
X045535Y046555D02*
X04554Y04656D01*
X03528Y03695D02*
Y037406D01*
X036155Y038281D01*
X03593Y04345D02*
X03635Y04303D01*
Y04295D02*
Y04303D01*
X04683Y04043D02*
X04725Y04085D01*
X04491Y039408D02*
Y0436D01*
X03142Y03615D02*
X03237Y0352D01*
X03142Y03615D02*
Y04438D01*
X03045Y04535D02*
X03142Y04438D01*
X04035Y04395D02*
Y044375D01*
X040225Y0445D02*
X04035Y044375D01*
X03912Y0445D02*
X040225D01*
X03887Y04425D02*
X03912Y0445D01*
X03887Y041276D02*
Y04425D01*
X04655Y03829D02*
Y039545D01*
X04625Y039845D02*
X04655Y039545D01*
X04625Y039845D02*
Y04162D01*
X047Y04237D01*
X03683Y04355D02*
Y0445D01*
Y04355D02*
X03735Y04303D01*
Y04295D02*
Y04303D01*
X03245Y04823D02*
Y0483D01*
X0427Y03582D02*
Y035828D01*
X040334Y037574D02*
X041038Y038278D01*
X041474D01*
X03835Y04129D02*
Y04295D01*
D15*
X03935Y03335D02*
D03*
Y03415D02*
D03*
X03685Y03335D02*
D03*
Y03415D02*
D03*
X03835Y03335D02*
D03*
Y03415D02*
D03*
D16*
X041474Y039026D02*
D03*
Y038278D02*
D03*
X0402Y038998D02*
D03*
Y03825D02*
D03*
D17*
X0427Y033072D02*
D03*
Y035828D02*
D03*
X0409Y033072D02*
D03*
Y035828D02*
D03*
D18*
X036844Y037331D02*
D03*
X03775D02*
D03*
X038656D02*
D03*
D19*
X03775Y039669D02*
D03*
D33*
X0304Y0362D02*
X030483Y036117D01*
X02972Y03688D02*
X0304Y0362D01*
X02972Y03688D02*
Y04757D01*
X0376Y0337D02*
X037668D01*
X038228Y033472D02*
X03835Y03335D01*
X037896Y033472D02*
X038228D01*
X037668Y0337D02*
X037896Y033472D01*
X037185Y033652D02*
X037552D01*
X037082Y03355D02*
X037185Y033652D01*
X037Y03355D02*
X037082D01*
X037552Y033652D02*
X0376Y0337D01*
X03935Y03335D02*
X039403D01*
X03985Y03385D02*
Y03545D01*
X039403Y03335D02*
X039525Y033472D01*
Y033525D01*
X03985Y03385D01*
X035153Y03295D02*
X038956D01*
X039175Y033228D02*
X039297Y03335D01*
X039175Y033169D02*
Y033228D01*
X038956Y03295D02*
X039175Y033169D01*
X03685Y0334D02*
X037Y03355D01*
X038656Y036644D02*
X03985Y03545D01*
X034963Y03314D02*
X035153Y03295D01*
X0363Y034D02*
X03675Y03355D01*
X036388Y034725D02*
X03782D01*
X0363Y034637D02*
X036388Y034725D01*
X0363Y034D02*
Y034637D01*
X03494Y03314D02*
X034963D01*
X03535Y0424D02*
X0373Y04045D01*
Y039911D02*
X037542Y039669D01*
X0373Y039911D02*
Y04045D01*
X037505Y037845D02*
X037602Y037748D01*
X037608D02*
X03775Y037606D01*
Y03673D02*
Y037606D01*
X037602Y037748D02*
X037608D01*
X037505Y037845D02*
Y038695D01*
X04385Y03695D02*
X04433Y03647D01*
X04536D01*
X04385Y03695D02*
Y037575D01*
X045285Y03901D01*
X048Y0463D02*
X04815D01*
X04755Y04295D02*
Y04585D01*
X048Y0463D01*
X04755Y04295D02*
X047775Y042725D01*
X047875D02*
X0481Y0425D01*
X047775Y042725D02*
X047875D01*
X03535Y0424D02*
Y04295D01*
X037542Y039669D02*
X03775D01*
X03775D02*
X03783Y039749D01*
X040485Y039541D02*
Y040935D01*
X04183Y04228D01*
Y0445D01*
X041Y039026D02*
X041474D01*
X040228D02*
X041D01*
X040485Y039541D02*
X041Y039026D01*
X0402Y038998D02*
X040228Y039026D01*
X03783Y039749D02*
Y0445D01*
X02997Y04687D02*
X03045Y04735D01*
X02997Y04183D02*
Y04687D01*
X0315Y04935D02*
X03185D01*
X02972Y04757D02*
X0315Y04935D01*
X03675Y03355D02*
X037D01*
X03782Y034725D02*
X038095Y035D01*
Y036385D01*
X03775Y03673D02*
X038095Y036385D01*
X04698Y03485D02*
X0478D01*
X04536Y03647D02*
X04698Y03485D01*
X045285Y03901D02*
Y045985D01*
X045045Y046225D02*
X045285Y045985D01*
X045045Y046225D02*
Y047D01*
X045895Y04785D01*
X04645D01*
X03783Y0445D02*
X03813Y0448D01*
X04153D01*
X04183Y0445D01*
X03775Y03894D02*
Y039669D01*
X037505Y038695D02*
X03775Y03894D01*
X038656Y036644D02*
Y037331D01*
X02997Y04183D02*
X03045Y04135D01*
D34*
X03535Y04295D02*
D03*
X0478Y03485D02*
D03*
D35*
X03635Y04295D02*
D03*
X03735D02*
D03*
X03835D02*
D03*
X03935D02*
D03*
X04035D02*
D03*
X04135D02*
D03*
X04235D02*
D03*
X04335D02*
D03*
Y04395D02*
D03*
X04235D02*
D03*
X04135D02*
D03*
X04035D02*
D03*
X03935D02*
D03*
X03835D02*
D03*
X03735D02*
D03*
X03635D02*
D03*
X03545Y0473D02*
D03*
Y0463D02*
D03*
X03245Y0483D02*
D03*
Y0473D02*
D03*
Y0463D02*
D03*
X03045Y04735D02*
D03*
Y04635D02*
D03*
Y04535D02*
D03*
Y04435D02*
D03*
Y04335D02*
D03*
Y04235D02*
D03*
Y04135D02*
D03*
D36*
X03535Y04395D02*
D03*
X0478Y04085D02*
D03*
Y03985D02*
D03*
Y03885D02*
D03*
Y03785D02*
D03*
Y03685D02*
D03*
Y03585D02*
D03*
D37*
X0481Y0425D02*
D03*
X0304Y0372D02*
D03*
X04815Y0453D02*
D03*
X03275Y0407D02*
D03*
X04645Y04285D02*
D03*
D38*
X0481Y0435D02*
D03*
X0304Y0362D02*
D03*
Y0352D02*
D03*
Y0342D02*
D03*
X04815Y0473D02*
D03*
Y0463D02*
D03*
X03275Y0337D02*
D03*
Y0347D02*
D03*
Y0357D02*
D03*
Y0367D02*
D03*
Y0377D02*
D03*
Y0387D02*
D03*
Y0397D02*
D03*
X04645Y04385D02*
D03*
Y04485D02*
D03*
Y04585D02*
D03*
Y04685D02*
D03*
Y04785D02*
D03*
D39*
X03545Y0483D02*
D03*
X03045Y04035D02*
D03*
D40*
X03905Y0391D02*
D03*
X0387Y0386D02*
D03*
X0388Y0347D02*
D03*
X03185Y03775D02*
D03*
X0376Y0337D02*
D03*
X0402Y0325D02*
D03*
X03795Y0383D02*
D03*
X03596Y04003D02*
D03*
X041Y0406D02*
D03*
X0404Y042D02*
D03*
X04005Y04055D02*
D03*
X03525Y03895D02*
D03*
X04225Y0388D02*
D03*
X04695Y03595D02*
D03*
X04515Y03765D02*
D03*
X04445Y0373D02*
D03*
X04685Y03775D02*
D03*
X04655Y03829D02*
D03*
X03685Y03615D02*
D03*
X035Y03535D02*
D03*
X0439Y04045D02*
D03*
X0407Y03725D02*
D03*
X0415D02*
D03*
Y0355D02*
D03*
X04239Y04478D02*
D03*
X03185Y04935D02*
D03*
X0339Y03975D02*
D03*
X04617Y03935D02*
D03*
X039277Y037927D02*
D03*
X04059Y03504D02*
D03*
X04013Y0361D02*
D03*
X043255Y045155D02*
D03*
X04377Y04632D02*
D03*
X04087Y0463D02*
D03*
X04768Y04179D02*
D03*
X04554Y04656D02*
D03*
X04166Y04738D02*
D03*
X03528Y03695D02*
D03*
X044875Y04585D02*
D03*
X03747Y03525D02*
D03*
X034655Y03635D02*
D03*
X04683Y04043D02*
D03*
X04491Y0436D02*
D03*
X0322Y04223D02*
D03*
X03478Y04481D02*
D03*
X03422Y03827D02*
D03*
X03494Y03314D02*
D03*
D41*
X03Y0493D02*
D03*
X02995Y03265D02*
D03*
X0479Y0327D02*
D03*
X04805Y04925D02*
D03*
M02*
