G04*
G04 #@! TF.GenerationSoftware,Altium Limited,Altium Designer,22.10.1 (41)*
G04*
G04 Layer_Color=255*
%FSTAX24Y24*%
%MOIN*%
G70*
G04*
G04 #@! TF.SameCoordinates,17841630-244F-4CFE-80E3-D5873E1B35FB*
G04*
G04*
G04 #@! TF.FilePolarity,Positive*
G04*
G01*
G75*
%ADD15R,0.0500X0.0394*%
%ADD16R,0.0551X0.0472*%
%ADD17R,0.0315X0.0472*%
%ADD18R,0.0433X0.0984*%
%ADD19R,0.1417X0.0921*%
%ADD34R,0.0750X0.0600*%
%ADD35O,0.0600X0.0750*%
%ADD36O,0.0750X0.0600*%
%ADD37R,0.0750X0.0600*%
%ADD38O,0.0750X0.0600*%
%ADD39R,0.0600X0.0750*%
D15*
X03935Y03335D02*
D03*
Y03415D02*
D03*
X03685Y03335D02*
D03*
Y03415D02*
D03*
X03835Y03335D02*
D03*
Y03415D02*
D03*
D16*
X041474Y039026D02*
D03*
Y038278D02*
D03*
X0402Y038998D02*
D03*
Y03825D02*
D03*
D17*
X0427Y033072D02*
D03*
Y035828D02*
D03*
X0409Y033072D02*
D03*
Y035828D02*
D03*
D18*
X036844Y037331D02*
D03*
X03775D02*
D03*
X038656D02*
D03*
D19*
X03775Y039669D02*
D03*
D34*
X03535Y04295D02*
D03*
X0478Y03485D02*
D03*
D35*
X03635Y04295D02*
D03*
X03735D02*
D03*
X03835D02*
D03*
X03935D02*
D03*
X04035D02*
D03*
X04135D02*
D03*
X04235D02*
D03*
X04335D02*
D03*
Y04395D02*
D03*
X04235D02*
D03*
X04135D02*
D03*
X04035D02*
D03*
X03935D02*
D03*
X03835D02*
D03*
X03735D02*
D03*
X03635D02*
D03*
X03545Y0473D02*
D03*
Y0463D02*
D03*
X03245Y0483D02*
D03*
Y0473D02*
D03*
Y0463D02*
D03*
X03045Y04735D02*
D03*
Y04635D02*
D03*
Y04535D02*
D03*
Y04435D02*
D03*
Y04335D02*
D03*
Y04235D02*
D03*
Y04135D02*
D03*
D36*
X03535Y04395D02*
D03*
X0478Y04085D02*
D03*
Y03985D02*
D03*
Y03885D02*
D03*
Y03785D02*
D03*
Y03685D02*
D03*
Y03585D02*
D03*
D37*
X0481Y0425D02*
D03*
X0304Y0372D02*
D03*
X04815Y0453D02*
D03*
X03275Y0407D02*
D03*
X04645Y04285D02*
D03*
D38*
X0481Y0435D02*
D03*
X0304Y0362D02*
D03*
Y0352D02*
D03*
Y0342D02*
D03*
X04815Y0473D02*
D03*
Y0463D02*
D03*
X03275Y0337D02*
D03*
Y0347D02*
D03*
Y0357D02*
D03*
Y0367D02*
D03*
Y0377D02*
D03*
Y0387D02*
D03*
Y0397D02*
D03*
X04645Y04385D02*
D03*
Y04485D02*
D03*
Y04585D02*
D03*
Y04685D02*
D03*
Y04785D02*
D03*
D39*
X03545Y0483D02*
D03*
X03045Y04035D02*
D03*
M02*
