G04*
G04 #@! TF.GenerationSoftware,Altium Limited,Altium Designer,22.10.1 (41)*
G04*
G04 Layer_Color=32896*
%FSTAX24Y24*%
%MOIN*%
G70*
G04*
G04 #@! TF.SameCoordinates,17841630-244F-4CFE-80E3-D5873E1B35FB*
G04*
G04*
G04 #@! TF.FilePolarity,Positive*
G04*
G01*
G75*
%ADD10C,0.0079*%
%ADD12C,0.0100*%
%ADD49C,0.0050*%
D10*
X035529Y03285D02*
G03*
X035529Y03285I-000039J0D01*
G01*
X0337Y0488D02*
G03*
X0342Y0488I00025J0D01*
G01*
X0342Y0488D02*
X034767D01*
X033133D02*
X0337D01*
X033133Y0458D02*
Y0488D01*
Y0458D02*
X034767D01*
Y0488D01*
X04595Y04835D02*
X04695D01*
X04595Y04235D02*
X04695D01*
Y04835D01*
X04595Y04235D02*
Y04835D01*
Y04335D02*
X04695D01*
D12*
X047308Y034332D02*
X048645D01*
X047308D02*
Y041329D01*
X048368D02*
X048639D01*
X047308D02*
X048368D01*
X048645Y040824D02*
Y041323D01*
Y034332D02*
Y040824D01*
X04285Y0407D02*
X0429Y04075D01*
X043D01*
X04305Y0407D01*
Y04065D01*
X043Y0406D01*
X0429D01*
X04285Y04055D01*
Y0405D01*
X0429Y04045D01*
X043D01*
X04305Y0405D01*
X04275Y0407D02*
X0427Y04075D01*
X0426D01*
X04255Y0407D01*
Y04065D01*
X0426Y0406D01*
X04265D01*
X0426D01*
X04255Y04055D01*
Y0405D01*
X0426Y04045D01*
X0427D01*
X04275Y0405D01*
X0319Y04965D02*
X03195Y0497D01*
X03205D01*
X0321Y04965D01*
Y0496D01*
X03205Y04955D01*
X03195D01*
X0319Y0495D01*
Y04945D01*
X03195Y0494D01*
X03205D01*
X0321Y04945D01*
X0318Y0494D02*
X0317D01*
X03175D01*
Y0497D01*
X0318Y04965D01*
X0482Y04185D02*
X048D01*
X0481D01*
Y04155D01*
X0479Y0418D02*
X04785Y04185D01*
X04775D01*
X0477Y0418D01*
Y04175D01*
X04775Y0417D01*
X0478D01*
X04775D01*
X0477Y04165D01*
Y0416D01*
X04775Y04155D01*
X04785D01*
X0479Y0416D01*
X046552Y04886D02*
X046602Y04891D01*
X046702D01*
X046752Y04886D01*
Y04866D01*
X046702Y04861D01*
X046602D01*
X046552Y04866D01*
X046452Y04886D02*
X046402Y04891D01*
X046302D01*
X046253Y04886D01*
Y04881D01*
X046302Y04876D01*
X046352D01*
X046302D01*
X046253Y04871D01*
Y04866D01*
X046302Y04861D01*
X046402D01*
X046452Y04866D01*
X0459Y03345D02*
Y03295D01*
Y0332D01*
X045567D01*
Y03345D01*
Y03295D01*
X04515Y03345D02*
X045317D01*
X0454Y033367D01*
Y033033D01*
X045317Y03295D01*
X04515D01*
X045067Y033033D01*
Y033367D01*
X04515Y03345D01*
X0449D02*
Y03295D01*
X04465D01*
X044567Y033033D01*
Y033117D01*
X04465Y0332D01*
X0449D01*
X04465D01*
X044567Y033283D01*
Y033367D01*
X04465Y03345D01*
X0449D01*
X044151D02*
X044317D01*
X0444Y033367D01*
Y033033D01*
X044317Y03295D01*
X044151D01*
X044067Y033033D01*
Y033367D01*
X044151Y03345D01*
D49*
X035962Y029901D02*
X043048D01*
Y032547D01*
X035962Y029901D02*
Y032547D01*
Y039653D02*
Y039941D01*
X036452D01*
X043048Y039653D02*
Y039941D01*
X042558D02*
X043048D01*
M02*
