G04*
G04 #@! TF.GenerationSoftware,Altium Limited,Altium Designer,22.10.1 (41)*
G04*
G04 Layer_Color=128*
%FSTAX24Y24*%
%MOIN*%
G70*
G04*
G04 #@! TF.SameCoordinates,17841630-244F-4CFE-80E3-D5873E1B35FB*
G04*
G04*
G04 #@! TF.FilePolarity,Positive*
G04*
G01*
G75*
%ADD43R,0.0354X0.0354*%
%ADD44R,0.0591X0.0354*%
%ADD45R,0.0354X0.0591*%
D43*
X038915Y035889D02*
D03*
X038363D02*
D03*
X039466D02*
D03*
X038363Y036441D02*
D03*
X038915D02*
D03*
X039466D02*
D03*
X038363Y035338D02*
D03*
X038915D02*
D03*
X039466D02*
D03*
D44*
X03606Y03285D02*
D03*
Y03335D02*
D03*
Y03385D02*
D03*
Y03435D02*
D03*
Y03485D02*
D03*
Y03535D02*
D03*
Y03585D02*
D03*
Y03635D02*
D03*
Y03685D02*
D03*
Y03735D02*
D03*
Y03785D02*
D03*
Y03835D02*
D03*
Y03885D02*
D03*
Y03935D02*
D03*
X04295D02*
D03*
Y03885D02*
D03*
Y03835D02*
D03*
Y03785D02*
D03*
Y03735D02*
D03*
Y03685D02*
D03*
Y03635D02*
D03*
Y03585D02*
D03*
Y03535D02*
D03*
Y03485D02*
D03*
Y03435D02*
D03*
Y03385D02*
D03*
Y03335D02*
D03*
Y03285D02*
D03*
D45*
X036755Y039842D02*
D03*
X037255D02*
D03*
X037755D02*
D03*
X038255D02*
D03*
X038755D02*
D03*
X039255D02*
D03*
X039755D02*
D03*
X040255D02*
D03*
X040755D02*
D03*
X041255D02*
D03*
X041755D02*
D03*
X042255D02*
D03*
M02*
