G04*
G04 #@! TF.GenerationSoftware,Altium Limited,Altium Designer,22.10.1 (41)*
G04*
G04 Layer_Color=255*
%FSTAX24Y24*%
%MOIN*%
G70*
G04*
G04 #@! TF.SameCoordinates,17841630-244F-4CFE-80E3-D5873E1B35FB*
G04*
G04*
G04 #@! TF.FilePolarity,Positive*
G04*
G01*
G75*
%ADD34R,0.0750X0.0600*%
%ADD35O,0.0600X0.0750*%
%ADD36O,0.0750X0.0600*%
%ADD37R,0.0750X0.0600*%
%ADD38O,0.0750X0.0600*%
%ADD39R,0.0600X0.0750*%
%ADD43R,0.0354X0.0354*%
%ADD44R,0.0591X0.0354*%
%ADD45R,0.0354X0.0591*%
D34*
X03535Y04295D02*
D03*
X0478Y03485D02*
D03*
D35*
X03635Y04295D02*
D03*
X03735D02*
D03*
X03835D02*
D03*
X03935D02*
D03*
X04035D02*
D03*
X04135D02*
D03*
X04235D02*
D03*
X04335D02*
D03*
Y04395D02*
D03*
X04235D02*
D03*
X04135D02*
D03*
X04035D02*
D03*
X03935D02*
D03*
X03835D02*
D03*
X03735D02*
D03*
X03635D02*
D03*
X03545Y0473D02*
D03*
Y0463D02*
D03*
X03245Y0483D02*
D03*
Y0473D02*
D03*
Y0463D02*
D03*
X03045Y04735D02*
D03*
Y04635D02*
D03*
Y04535D02*
D03*
Y04435D02*
D03*
Y04335D02*
D03*
Y04235D02*
D03*
Y04135D02*
D03*
D36*
X03535Y04395D02*
D03*
X0478Y04085D02*
D03*
Y03985D02*
D03*
Y03885D02*
D03*
Y03785D02*
D03*
Y03685D02*
D03*
Y03585D02*
D03*
D37*
X0481Y0425D02*
D03*
X0304Y0372D02*
D03*
X04815Y0453D02*
D03*
X03275Y0407D02*
D03*
X04645Y04285D02*
D03*
D38*
X0481Y0435D02*
D03*
X0304Y0362D02*
D03*
Y0352D02*
D03*
Y0342D02*
D03*
X04815Y0473D02*
D03*
Y0463D02*
D03*
X03275Y0337D02*
D03*
Y0347D02*
D03*
Y0357D02*
D03*
Y0367D02*
D03*
Y0377D02*
D03*
Y0387D02*
D03*
Y0397D02*
D03*
X04645Y04385D02*
D03*
Y04485D02*
D03*
Y04585D02*
D03*
Y04685D02*
D03*
Y04785D02*
D03*
D39*
X03545Y0483D02*
D03*
X03045Y04035D02*
D03*
D43*
X038915Y035889D02*
D03*
X038363D02*
D03*
X039466D02*
D03*
X038363Y036441D02*
D03*
X038915D02*
D03*
X039466D02*
D03*
X038363Y035338D02*
D03*
X038915D02*
D03*
X039466D02*
D03*
D44*
X03606Y03285D02*
D03*
Y03335D02*
D03*
Y03385D02*
D03*
Y03435D02*
D03*
Y03485D02*
D03*
Y03535D02*
D03*
Y03585D02*
D03*
Y03635D02*
D03*
Y03685D02*
D03*
Y03735D02*
D03*
Y03785D02*
D03*
Y03835D02*
D03*
Y03885D02*
D03*
Y03935D02*
D03*
X04295D02*
D03*
Y03885D02*
D03*
Y03835D02*
D03*
Y03785D02*
D03*
Y03735D02*
D03*
Y03685D02*
D03*
Y03635D02*
D03*
Y03585D02*
D03*
Y03535D02*
D03*
Y03485D02*
D03*
Y03435D02*
D03*
Y03385D02*
D03*
Y03335D02*
D03*
Y03285D02*
D03*
D45*
X036755Y039842D02*
D03*
X037255D02*
D03*
X037755D02*
D03*
X038255D02*
D03*
X038755D02*
D03*
X039255D02*
D03*
X039755D02*
D03*
X040255D02*
D03*
X040755D02*
D03*
X041255D02*
D03*
X041755D02*
D03*
X042255D02*
D03*
M02*
