G04*
G04 #@! TF.GenerationSoftware,Altium Limited,Altium Designer,22.10.1 (41)*
G04*
G04 Layer_Color=65535*
%FSTAX24Y24*%
%MOIN*%
G70*
G04*
G04 #@! TF.SameCoordinates,17841630-244F-4CFE-80E3-D5873E1B35FB*
G04*
G04*
G04 #@! TF.FilePolarity,Positive*
G04*
G01*
G75*
%ADD10C,0.0079*%
%ADD11C,0.0070*%
%ADD12C,0.0100*%
%ADD13C,0.0060*%
%ADD14R,0.0500X0.1000*%
D10*
X03485Y04245D02*
Y04445D01*
X04385D01*
Y04245D02*
Y04445D01*
X03485Y04245D02*
X04385D01*
X03485Y04345D02*
X03585D01*
Y04245D02*
Y04345D01*
X051824Y042667D02*
X051991Y0425D01*
X051824Y043333D02*
X051991Y0435D01*
X051824Y043667D02*
X051991Y0435D01*
X051824Y042333D02*
X051991Y0425D01*
X048707Y042183D02*
X048874Y042017D01*
X048691Y042D02*
Y044D01*
Y042D02*
X049691D01*
X048691Y044D02*
X049691D01*
Y042D02*
Y044D01*
X049701Y042333D02*
X051824D01*
X049691Y042667D02*
X051824D01*
X049701Y043333D02*
X051824D01*
X049701Y043667D02*
X051824D01*
X03902Y03298D02*
X03967D01*
X03902Y03452D02*
X03968D01*
X0299Y033602D02*
X0309D01*
X0299D02*
Y037798D01*
X0309Y033602D02*
Y037798D01*
X0299D02*
X0309D01*
X0299Y0367D02*
X0309D01*
X051874Y045467D02*
X052041Y0453D01*
X051874Y046133D02*
X052041Y0463D01*
X051874Y046467D02*
X052041Y0463D01*
X051874Y045133D02*
X052041Y0453D01*
X048757Y044983D02*
X048924Y044817D01*
X048741Y0448D02*
Y0478D01*
Y0448D02*
X049741D01*
X048741Y0478D02*
X049741D01*
Y0448D02*
Y0478D01*
X049751Y045133D02*
X051874D01*
X049741Y045467D02*
X051874D01*
X049751Y046133D02*
X051874D01*
X049751Y046467D02*
X051874D01*
Y047467D02*
X052041Y0473D01*
X051874Y047133D02*
X052041Y0473D01*
X049751Y047133D02*
X051874D01*
X049741Y047467D02*
X051874D01*
X04183Y038811D02*
Y039339D01*
X04112D02*
X04183D01*
X04112Y038811D02*
Y039339D01*
Y037961D02*
Y038506D01*
X04183Y037961D02*
Y038506D01*
X04112Y037961D02*
X04183D01*
X03325Y0332D02*
Y0412D01*
X03225D02*
X03325D01*
X03225Y0332D02*
Y0412D01*
Y0332D02*
X03325D01*
X03225Y0402D02*
X03325D01*
X03652Y03298D02*
X03717D01*
X03652Y03452D02*
X03718D01*
X03802Y03298D02*
X03867D01*
X03802Y03452D02*
X03868D01*
X040556Y038783D02*
Y039311D01*
X039846D02*
X040556D01*
X039846Y038783D02*
Y039311D01*
Y037933D02*
Y038478D01*
X040556Y037933D02*
Y038478D01*
X039846Y037933D02*
X040556D01*
D11*
X041744Y038562D02*
Y038742D01*
X041204Y038562D02*
Y038742D01*
X04047Y038534D02*
Y038714D01*
X03993Y038534D02*
Y038714D01*
D12*
X04197Y03334D02*
X04242D01*
X04298D02*
X04343D01*
X04245Y03495D02*
X04295D01*
X04245Y03395D02*
Y03495D01*
Y03395D02*
X04295D01*
Y03495D01*
X04343Y03334D02*
Y03556D01*
X04197Y03334D02*
Y03556D01*
X04242D01*
X04298D02*
X04343D01*
X04017Y03334D02*
X04062D01*
X04118D02*
X04163D01*
X04065Y03495D02*
X04115D01*
X04065Y03395D02*
Y03495D01*
Y03395D02*
X04115D01*
Y03495D01*
X04163Y03334D02*
Y03556D01*
X04017Y03334D02*
Y03556D01*
X04062D01*
X04118D02*
X04163D01*
X03515Y04505D02*
X0351Y0451D01*
X035D01*
X03495Y04505D01*
Y04485D01*
X035Y0448D01*
X0351D01*
X03515Y04485D01*
X03545Y0448D02*
X03525D01*
X03545Y045D01*
Y04505D01*
X0354Y0451D01*
X0353D01*
X03525Y04505D01*
X0481Y0444D02*
X04805Y04445D01*
X04795D01*
X0479Y0444D01*
Y0442D01*
X04795Y04415D01*
X04805D01*
X0481Y0442D01*
X04835Y04415D02*
Y04445D01*
X0482Y0443D01*
X0484D01*
X039367Y032667D02*
X039333Y0327D01*
X039267D01*
X039233Y032667D01*
Y032533D01*
X039267Y0325D01*
X039333D01*
X039367Y032533D01*
X039433Y0327D02*
X039567D01*
Y032667D01*
X039433Y032533D01*
Y0325D01*
X02985Y0383D02*
Y03805D01*
X0299Y038D01*
X03D01*
X03005Y03805D01*
Y0383D01*
X03015Y038D02*
Y0382D01*
X03025Y0383D01*
X03035Y0382D01*
Y038D01*
Y03815D01*
X03015D01*
X03045Y038D02*
Y0383D01*
X0306D01*
X03065Y03825D01*
Y03815D01*
X0306Y0381D01*
X03045D01*
X03055D02*
X03065Y038D01*
X03075Y0383D02*
X03095D01*
X03085D01*
Y038D01*
X04815Y04825D02*
X0481Y0483D01*
X048D01*
X04795Y04825D01*
Y04805D01*
X048Y048D01*
X0481D01*
X04815Y04805D01*
X04825D02*
X0483Y048D01*
X0484D01*
X04845Y04805D01*
Y04825D01*
X0484Y0483D01*
X0483D01*
X04825Y04825D01*
Y0482D01*
X0483Y04815D01*
X04845D01*
X041283Y0396D02*
Y0398D01*
X041383D01*
X041417Y039767D01*
Y0397D01*
X041383Y039667D01*
X041283D01*
X04135D02*
X041417Y0396D01*
X041617D02*
X041483D01*
X041617Y039733D01*
Y039767D01*
X041583Y0398D01*
X041517D01*
X041483Y039767D01*
X042283Y0367D02*
Y0365D01*
X042383D01*
X042417Y036533D01*
Y036567D01*
X042383Y0366D01*
X042283D01*
X042383D01*
X042417Y036633D01*
Y036667D01*
X042383Y0367D01*
X042283D01*
X042583D02*
X042517D01*
X042483Y036667D01*
Y036533D01*
X042517Y0365D01*
X042583D01*
X042617Y036533D01*
Y036667D01*
X042583Y0367D01*
X042783D02*
X042717D01*
X042683Y036667D01*
Y036533D01*
X042717Y0365D01*
X042783D01*
X042817Y036533D01*
Y036667D01*
X042783Y0367D01*
X042883D02*
X043017D01*
X04295D01*
Y0365D01*
X03025Y04845D02*
X03045D01*
X03035D01*
Y04815D01*
X03055D02*
X03065D01*
X0306D01*
Y04845D01*
X03055Y0484D01*
X036433Y03985D02*
X036567D01*
X0365D01*
Y03965D01*
X036767D02*
X036633D01*
X036767Y039783D01*
Y039817D01*
X036733Y03985D01*
X036667D01*
X036633Y039817D01*
X03275Y0417D02*
X0327Y04175D01*
X0326D01*
X03255Y0417D01*
Y0415D01*
X0326Y04145D01*
X0327D01*
X03275Y0415D01*
X03285Y04145D02*
X03295D01*
X0329D01*
Y04175D01*
X03285Y0417D01*
X04395Y03375D02*
Y03405D01*
X04405Y03395D01*
X04415Y03405D01*
Y03375D01*
X04425Y03405D02*
X04435D01*
X0443D01*
Y03375D01*
X04425D01*
X04435D01*
X0445D02*
Y03405D01*
X0447Y03375D01*
Y03405D01*
X0448Y03375D02*
Y03395D01*
X0449Y03405D01*
X045Y03395D01*
Y03375D01*
Y0339D01*
X0448D01*
X0453Y034D02*
X04525Y03405D01*
X04515D01*
X0451Y034D01*
Y03395D01*
X04515Y0339D01*
X04525D01*
X0453Y03385D01*
Y0338D01*
X04525Y03375D01*
X04515D01*
X0451Y0338D01*
X0454Y03405D02*
X045599D01*
X0455D01*
Y03375D01*
X045699Y03405D02*
X045799D01*
X045749D01*
Y03375D01*
X045699D01*
X045799D01*
X045949Y03405D02*
Y03375D01*
Y03385D01*
X046149Y03405D01*
X045999Y0339D01*
X046149Y03375D01*
X036767Y032667D02*
X036733Y0327D01*
X036667D01*
X036633Y032667D01*
Y032533D01*
X036667Y0325D01*
X036733D01*
X036767Y032533D01*
X036967Y0327D02*
X0369Y032667D01*
X036833Y0326D01*
Y032533D01*
X036867Y0325D01*
X036933D01*
X036967Y032533D01*
Y032567D01*
X036933Y0326D01*
X036833D01*
X038317Y032667D02*
X038283Y0327D01*
X038217D01*
X038183Y032667D01*
Y032533D01*
X038217Y0325D01*
X038283D01*
X038317Y032533D01*
X038517Y0327D02*
X038383D01*
Y0326D01*
X03845Y032633D01*
X038483D01*
X038517Y0326D01*
Y032533D01*
X038483Y0325D01*
X038417D01*
X038383Y032533D01*
X040017Y0396D02*
Y0398D01*
X040117D01*
X04015Y039767D01*
Y0397D01*
X040117Y039667D01*
X040017D01*
X040083D02*
X04015Y0396D01*
X040217D02*
X040283D01*
X04025D01*
Y0398D01*
X040217Y039767D01*
X040533Y0365D02*
Y0367D01*
X040633D01*
X040667Y036667D01*
Y0366D01*
X040633Y036567D01*
X040533D01*
X0406D02*
X040667Y0365D01*
X040867Y0367D02*
X040733D01*
Y0365D01*
X040867D01*
X040733Y0366D02*
X0408D01*
X041067Y036667D02*
X041033Y0367D01*
X040967D01*
X040933Y036667D01*
Y036633D01*
X040967Y0366D01*
X041033D01*
X041067Y036567D01*
Y036533D01*
X041033Y0365D01*
X040967D01*
X040933Y036533D01*
X041267Y0367D02*
X041133D01*
Y0365D01*
X041267D01*
X041133Y0366D02*
X0412D01*
X041333Y0367D02*
X041467D01*
X0414D01*
Y0365D01*
D13*
X03644Y03796D02*
Y039119D01*
Y03796D02*
X03906D01*
Y039119D01*
X03644D02*
X03906D01*
D14*
X0427Y03445D02*
D03*
X0409D02*
D03*
M02*
